<svg height="256" viewBox="0 0 67.733332 67.733335" width="256" xmlns="http://www.w3.org/2000/svg"><g transform="translate(0 -229.26665)"><path d="m8.4666666 246.19998v33.86667l25.3999994 8.46667 25.4-8.46667v-33.86667l-25.4-8.46666z" fill="none" stroke="#8a8888" stroke-linecap="round" stroke-linejoin="round" stroke-width="6.350349" transform="matrix(1.1604086 0 0 1.1604086 -5.432504 -42.208842)"/><path d="m33.866754 254.94601v32.74919l24.561894-8.1873v-32.7492l-24.561894-8.18728-24.5618925 8.18728z" fill="#969696" fill-rule="evenodd" stroke="#969696" stroke-linejoin="round" stroke-width="8.187298"/><path d="m39.14117 283.99732v-28.59349l7.56078-2.36036q5.007788-1.56336 7.973185.69231 2.985035 2.24953 3.04395 7.76916v4.63466q0 5.63622-2.985035 9.7888-2.965396 4.12681-8.189207 5.7576zm5.773686-25.58454v18.99032l1.728179-.53951q2.886842-.90123 4.065146-2.78124 1.178303-1.89964 1.237218-5.64933v-4.96851q0-4.00623-1.119388-5.22785-1.119388-1.24125-3.809847-.47988z" fill="#fff"/></g></svg>