<svg height="256" viewBox="0 0 67.733332 67.733335" width="256" xmlns="http://www.w3.org/2000/svg"><g transform="translate(0 -229.26665)"><path d="m8.4666666 246.19998v33.86667l25.3999994 8.46667 25.4-8.46667v-33.86667l-25.4-8.46666z" fill="none" stroke="#98312a" stroke-linecap="round" stroke-linejoin="round" stroke-width="6.35" transform="matrix(1.1604086 0 0 1.1604086 -5.432504 -42.208842)"/><path d="m33.866754 254.94601v32.74919l24.561894-8.1873v-32.7492l-24.561894-8.18728-24.5618925 8.18728z" fill="#b03931" fill-rule="evenodd" stroke="#b03931" stroke-linejoin="round" stroke-width="8.187298"/><path d="m39.14117 296.21661v-28.59349h7.56078q5.007788 0 7.973185 3.18142 2.985035 3.18142 3.04395 8.71944v4.63466q0 5.63622-2.985035 8.85692-2.965396 3.20105-8.189207 3.20105zm5.773686-23.78208v18.99032h1.728179q2.886842 0 4.065146-1.51216 1.178303-1.53179 1.237218-5.26309v-4.96851q0-4.00623-1.119388-5.5773-1.119388-1.59071-3.809847-1.66926z" fill="#fff" transform="matrix(1 -.31218514 0 1 0 0)"/></g></svg>