<?xml version="1.0" encoding="UTF-8" standalone="no"?>
<!-- Created with Inkscape (http://www.inkscape.org/) -->

<svg
   xmlns:dc="http://purl.org/dc/elements/1.1/"
   xmlns:cc="http://creativecommons.org/ns#"
   xmlns:rdf="http://www.w3.org/1999/02/22-rdf-syntax-ns#"
   xmlns:svg="http://www.w3.org/2000/svg"
   xmlns="http://www.w3.org/2000/svg"
   xmlns:sodipodi="http://sodipodi.sourceforge.net/DTD/sodipodi-0.dtd"
   xmlns:inkscape="http://www.inkscape.org/namespaces/inkscape"
   width="210mm"
   height="297mm"
   viewBox="0 0 744.09448819 1052.3622047"
   id="svg4157"
   version="1.1"
   inkscape:version="0.91 r13725"
   sodipodi:docname="dub.svg">
  <defs
     id="defs4159" />
  <sodipodi:namedview
     id="base"
     pagecolor="#ffffff"
     bordercolor="#666666"
     borderopacity="1.0"
     inkscape:pageopacity="0.0"
     inkscape:pageshadow="2"
     inkscape:zoom="0.98994949"
     inkscape:cx="255.8301"
     inkscape:cy="805.09947"
     inkscape:document-units="px"
     inkscape:current-layer="layer1"
     showgrid="false"
     inkscape:window-width="1366"
     inkscape:window-height="746"
     inkscape:window-x="0"
     inkscape:window-y="22"
     inkscape:window-maximized="1" />
  <metadata
     id="metadata4162">
    <rdf:RDF>
      <cc:Work
         rdf:about="">
        <dc:format>image/svg+xml</dc:format>
        <dc:type
           rdf:resource="http://purl.org/dc/dcmitype/StillImage" />
        <dc:title></dc:title>
      </cc:Work>
    </rdf:RDF>
  </metadata>
  <g
     inkscape:label="Layer 1"
     inkscape:groupmode="layer"
     id="layer1">
    <g
       id="g4841">
      <path
         id="path4766-8"
         d="m 145.93384,275.92153 a 115.71429,115.71429 0 0 1 -0.0801,-2.27735 115.71429,115.71429 0 0 1 115.71487,-115.71484 115.71429,115.71429 0 0 1 115.71484,115.71484 115.71429,115.71429 0 0 1 -0.11328,2.27735 l -39.96679,0 a 75.714287,75.714287 0 0 0 0.0801,-2.27735 75.714287,75.714287 0 0 0 -75.71487,-75.71484 75.714287,75.714287 0 0 0 -75.71484,75.71484 75.714287,75.714287 0 0 0 0.11328,2.27735 l -40.03321,0 z"
         style="opacity:1;fill:#808080;fill-opacity:1;fill-rule:nonzero;stroke:none;stroke-width:0.99000001;stroke-miterlimit:4;stroke-dasharray:none;stroke-opacity:1"
         inkscape:connector-curvature="0" />
      <path
         inkscape:connector-curvature="0"
         id="path4709"
         d="M 70,158.07617 A 115.71429,115.71429 0 0 0 -45.71484,273.79102 115.71429,115.71429 0 0 0 70,389.50586 115.71429,115.71429 0 0 0 185.71484,273.79102 115.71429,115.71429 0 0 0 70,158.07617 Z m 0,40 A 75.714287,75.714287 0 0 1 145.71484,273.79102 75.714287,75.714287 0 0 1 70,349.50586 75.714287,75.714287 0 0 1 -5.7148401,273.79102 75.714287,75.714287 0 0 1 70,198.07617 Z"
         style="opacity:1;fill-opacity:1;fill-rule:nonzero;stroke:none;stroke-width:0.99000001;stroke-miterlimit:4;stroke-dasharray:none;stroke-opacity:1" />
      <path
         id="path4766"
         d="M 146.36523 271.51367 A 115.71429 115.71429 0 0 0 146.28516 273.79102 A 115.71429 115.71429 0 0 0 262 389.50586 A 115.71429 115.71429 0 0 0 377.71484 273.79102 A 115.71429 115.71429 0 0 0 377.60156 271.51367 L 337.63477 271.51367 A 75.714287 75.714287 0 0 1 337.71484 273.79102 A 75.714287 75.714287 0 0 1 262 349.50586 A 75.714287 75.714287 0 0 1 186.28516 273.79102 A 75.714287 75.714287 0 0 1 186.39844 271.51367 L 146.36523 271.51367 z "
         style="opacity:1;fill-opacity:1;fill-rule:nonzero;stroke:none;stroke-width:0.99000001;stroke-miterlimit:4;stroke-dasharray:none;stroke-opacity:1" />
      <path
         inkscape:connector-curvature="0"
         id="path4768"
         d="M 454,158.07617 A 115.71429,115.71429 0 0 0 338.28516,273.79102 115.71429,115.71429 0 0 0 454,389.50586 115.71429,115.71429 0 0 0 569.71484,273.79102 115.71429,115.71429 0 0 0 454,158.07617 Z m 0,40 A 75.714287,75.714287 0 0 1 529.71484,273.79102 75.714287,75.714287 0 0 1 454,349.50586 75.714287,75.714287 0 0 1 378.28516,273.79102 75.714287,75.714287 0 0 1 454,198.07617 Z"
         style="opacity:1;fill-opacity:1;fill-rule:nonzero;stroke:none;stroke-width:0.99000001;stroke-miterlimit:4;stroke-dasharray:none;stroke-opacity:1;fill:#000000" />
      <rect
         y="80.734154"
         x="154.43285"
         height="242.24593"
         width="21.971119"
         id="rect4770"
         style="opacity:1;fill:#000000;fill-opacity:1;fill-rule:nonzero;stroke:#000000;stroke-width:21.47776222;stroke-linejoin:round;stroke-miterlimit:4;stroke-dasharray:none;stroke-opacity:1" />
      <rect
         style="opacity:1;fill:#000000;fill-opacity:1;fill-rule:nonzero;stroke:#000000;stroke-width:21.47776222;stroke-linejoin:round;stroke-miterlimit:4;stroke-dasharray:none;stroke-opacity:1"
         id="rect4820"
         width="21.971119"
         height="242.24593"
         x="346.43286"
         y="80.734154" />
    </g>
  </g>
</svg>
